<svg width="138" height="12" viewBox="0 0 138 12" fill="none" xmlns="http://www.w3.org/2000/svg">
<path d="M5.782 11L3.822 7.36H3.528V11H0.784V1.13H5.11C5.90333 1.13 6.57533 1.27 7.126 1.55C7.67667 1.82067 8.092 2.19867 8.372 2.684C8.652 3.16 8.792 3.69667 8.792 4.294C8.792 4.966 8.60533 5.55867 8.232 6.072C7.868 6.576 7.33133 6.93533 6.622 7.15L8.848 11H5.782ZM3.528 5.484H4.886C5.25933 5.484 5.53933 5.39533 5.726 5.218C5.91267 5.04067 6.006 4.784 6.006 4.448C6.006 4.13067 5.908 3.88333 5.712 3.706C5.52533 3.51933 5.25 3.426 4.886 3.426H3.528V5.484ZM16.2839 9.39H12.7839L12.2519 11H9.36786L12.9659 1.13H16.1299L19.7139 11H16.8159L16.2839 9.39ZM15.5979 7.29L14.5339 4.098L13.4839 7.29H15.5979ZM32.1302 1.13V11H29.3862V5.554L27.5242 11H25.2282L23.3522 5.512V11H20.6082V1.13H23.9262L26.4042 7.542L28.8262 1.13H32.1302ZM37.4162 11.098C36.2682 11.098 35.3255 10.8273 34.5882 10.286C33.8509 9.73533 33.4542 8.95133 33.3982 7.934H36.3242C36.3522 8.27933 36.4549 8.53133 36.6322 8.69C36.8095 8.84867 37.0382 8.928 37.3182 8.928C37.5702 8.928 37.7755 8.86733 37.9342 8.746C38.1022 8.61533 38.1862 8.438 38.1862 8.214C38.1862 7.92467 38.0509 7.70067 37.7802 7.542C37.5095 7.38333 37.0709 7.206 36.4642 7.01C35.8202 6.79533 35.2975 6.59 34.8962 6.394C34.5042 6.18867 34.1589 5.89467 33.8602 5.512C33.5709 5.12 33.4262 4.61133 33.4262 3.986C33.4262 3.35133 33.5849 2.81 33.9022 2.362C34.2195 1.90467 34.6582 1.55933 35.2182 1.326C35.7782 1.09267 36.4129 0.976 37.1222 0.976C38.2702 0.976 39.1849 1.24667 39.8662 1.788C40.5569 2.32 40.9255 3.07133 40.9722 4.042H37.9902C37.9809 3.74333 37.8875 3.51933 37.7102 3.37C37.5422 3.22067 37.3229 3.146 37.0522 3.146C36.8469 3.146 36.6789 3.20667 36.5482 3.328C36.4175 3.44933 36.3522 3.622 36.3522 3.846C36.3522 4.03267 36.4222 4.196 36.5622 4.336C36.7115 4.46667 36.8935 4.58333 37.1082 4.686C37.3229 4.77933 37.6402 4.90067 38.0602 5.05C38.6855 5.26467 39.1989 5.47933 39.6002 5.694C40.0109 5.89933 40.3609 6.19333 40.6502 6.576C40.9489 6.94933 41.0982 7.42533 41.0982 8.004C41.0982 8.592 40.9489 9.11933 40.6502 9.586C40.3609 10.0527 39.9362 10.4213 39.3762 10.692C38.8255 10.9627 38.1722 11.098 37.4162 11.098ZM45.1178 3.328V4.938H48.2678V7.024H45.1178V8.802H48.6878V11H42.3738V1.13H48.6878V3.328H45.1178ZM59.0178 1.13L55.5458 7.864V11H52.7878V7.864L49.3158 1.13H52.4518L54.1878 4.938L55.9238 1.13H59.0178ZM74.0619 1.13V11H71.3179V5.554L69.4559 11H67.1599L65.2839 5.512V11H62.5399V1.13H65.8579L68.3359 7.542L70.7579 1.13H74.0619ZM78.3118 1.13V6.856C78.3118 7.388 78.4332 7.79867 78.6758 8.088C78.9278 8.37733 79.3058 8.522 79.8098 8.522C80.3138 8.522 80.6918 8.37733 80.9438 8.088C81.2052 7.78933 81.3358 7.37867 81.3358 6.856V1.13H84.0798V6.856C84.0798 7.76133 83.8885 8.536 83.5058 9.18C83.1232 9.81467 82.6005 10.2953 81.9378 10.622C81.2845 10.9393 80.5565 11.098 79.7538 11.098C78.9512 11.098 78.2325 10.9393 77.5978 10.622C76.9725 10.2953 76.4778 9.81467 76.1138 9.18C75.7592 8.54533 75.5818 7.77067 75.5818 6.856V1.13H78.3118ZM88.3346 8.9H91.4006V11H85.5906V1.13H88.3346V8.9ZM95.2116 8.9H98.2776V11H92.4676V1.13H95.2116V8.9ZM105.589 9.39H102.089L101.557 11H98.6725L102.271 1.13H105.435L109.019 11H106.121L105.589 9.39ZM104.903 7.29L103.839 4.098L102.789 7.29H104.903ZM119.055 11H116.311L112.657 5.484V11H109.913V1.13H112.657L116.311 6.716V1.13H119.055V11ZM123.362 3.328V4.938H126.512V7.024H123.362V8.802H126.932V11H120.618V1.13H126.932V3.328H123.362ZM137.262 1.13L133.79 7.864V11H131.032V7.864L127.56 1.13H130.696L132.432 4.938L134.168 1.13H137.262Z" fill="#009AAB"/>
</svg>
