<svg width="194" height="49" viewBox="0 0 194 49" fill="none" xmlns="http://www.w3.org/2000/svg">
<path d="M44.444 19.976C45.66 18.3293 47.18 16.6193 49.004 14.846L52.538 17.582C52.2593 18.7473 52.0187 19.596 51.816 20.128C55.084 19.7733 57.44 19.4187 58.884 19.064C60.328 18.7093 61.582 18.3927 62.646 18.114L63.71 22.636C62.6713 22.94 61.582 23.206 60.442 23.434C58.694 26.1953 57.2373 29.1213 56.072 32.212C60.2773 30.768 63.3807 29.4253 65.382 28.184L66.218 32.022C63.8873 33.542 60.8347 35.1 57.06 36.696C55.844 37.2027 54.6787 37.646 53.564 38.026L49.536 33.998C51.1827 30.2233 52.9433 26.968 54.818 24.232C53.0447 24.384 51.474 24.4853 50.106 24.536C49.7007 25.296 48.6113 27.196 46.838 30.236L44.026 32.022L40.416 29.894C42.5187 27.614 43.9373 26.018 44.672 25.106C45.4067 24.194 46.04 23.4087 46.572 22.75C45.8373 21.9393 45.128 21.0147 44.444 19.976ZM76.2874 34.606C74.2861 36.1767 71.9807 37.3167 69.3714 38.026L64.6594 33.656C64.6594 31.6547 64.9634 29.6913 65.5714 27.766C66.1794 25.8407 67.0787 24.1053 68.2694 22.56C69.4601 21.0147 70.9294 19.7353 72.6774 18.722C74.4507 17.6833 76.4901 17.0627 78.7954 16.86L81.3034 20.698C81.6074 20.2167 82.2534 19.3807 83.2414 18.19L86.9654 21.382C84.4574 24.65 82.3801 28.146 80.7334 31.87L80.6194 31.946C82.0887 31.566 83.8114 30.92 85.7874 30.008C87.7634 29.0707 89.0174 28.4627 89.5494 28.184L90.3854 32.022C88.8907 33.1113 86.4081 34.5173 82.9374 36.24C81.5694 36.924 80.3281 37.4687 79.2134 37.874L76.2874 34.606ZM69.9794 32.554C72.6901 31.8193 75.1601 30.0207 77.3894 27.158C78.0481 25.714 78.5421 23.9153 78.8714 21.762C76.2621 22.0153 74.1214 23.168 72.4494 25.22C70.8027 27.2467 69.9794 29.6913 69.9794 32.554ZM109.165 24.118C111.217 22.4713 113.497 20.9767 116.005 19.634L120.603 23.244C119.793 26.6133 118.45 29.514 116.575 31.946C119.033 31.11 121.895 29.856 125.163 28.184L125.961 32.022C124.923 32.706 123.339 33.58 121.211 34.644C117.563 36.4427 115.043 37.57 113.649 38.026L108.937 34.682C112.079 30.9073 113.928 27.842 114.485 25.486C111.825 26.778 109.317 28.2727 106.961 29.97C105.72 32.7567 104.187 35.442 102.363 38.026L97.9934 35.024C99.2094 33.4027 100.235 31.832 101.071 30.312C102.414 27.8293 103.237 25.8787 103.541 24.46C101.109 25.6 98.8674 26.892 96.8154 28.336C96.1061 28.8173 95.3588 29.3367 94.5734 29.894C93.4334 32.5793 92.4328 35.29 91.5714 38.026L87.0494 35.1C87.9108 32.1867 89.2534 28.906 91.0774 25.258C92.7241 21.99 94.4468 19.2287 96.2454 16.974L100.083 19.748C99.1714 20.9893 98.3608 22.2687 97.6514 23.586C99.9568 21.686 102.427 20.0267 105.061 18.608L109.659 22.218L109.165 24.118ZM130.863 38.33C129.039 37.114 127.443 35.9613 126.075 34.872C124.834 33.7827 123.478 32.478 122.009 30.958L125.923 28.184C127.696 30.0333 129.001 31.2747 129.837 31.908C130.673 32.516 131.42 33.0353 132.079 33.466C132.788 33.39 133.941 33.1493 135.537 32.744L129.229 26.778C128.646 26.17 128.19 25.6253 127.861 25.144C128.824 23.4213 130.483 21.6353 132.839 19.786C135.043 18.0633 137.146 16.9107 139.147 16.328L145.227 21.23C144.796 22.9527 143.783 25.2327 142.187 28.07L138.121 25.03C138.653 24.2447 139.122 23.396 139.527 22.484C139.932 21.572 140.173 20.964 140.249 20.66C138.83 21.192 137.374 22.1547 135.879 23.548C135.347 24.0547 134.866 24.574 134.435 25.106C134.916 25.8407 135.651 26.6133 136.639 27.424C138.311 28.868 139.717 30.1093 140.857 31.148C143.669 30.1853 146.05 29.1973 148.001 28.184L148.799 32.022C146.772 33.466 143.922 34.8087 140.249 36.05C136.854 37.19 133.726 37.95 130.863 38.33ZM156.211 29.666C155.021 29.666 154.083 29.5773 153.399 29.4C152.994 30.388 152.741 31.6167 152.639 33.086C156.997 32.8327 161.202 31.8573 165.255 30.16C166.623 29.6027 167.941 28.944 169.207 28.184L170.005 32.022C167.649 33.5167 164.863 34.834 161.645 35.974C158.225 37.19 154.995 37.874 151.955 38.026L147.243 33.656C147.243 30.16 148.193 26.968 150.093 24.08C151.461 22.0787 153.007 20.4953 154.729 19.33C156.477 18.1647 158.149 17.3287 159.745 16.822L166.167 22.142C165.534 24.7767 164.331 26.6893 162.557 27.88C160.784 29.0707 158.669 29.666 156.211 29.666ZM154.995 25.98C156.465 25.98 157.744 25.5747 158.833 24.764C160.1 23.8013 160.733 22.4587 160.733 20.736C158.175 22.1293 156.262 23.8773 154.995 25.98ZM184.372 31.414C188.476 30.2233 191.352 29.1467 192.998 28.184L193.834 32.022C191.808 33.542 189.54 34.9227 187.032 36.164C186.146 36.62 185.373 36.962 184.714 37.19L182.852 35.138C182.143 38.3553 181.307 40.9267 180.344 42.852C179.432 44.6253 178.14 46.3987 176.468 48.172C173.682 48.096 170.629 47.6527 167.31 46.842C166.272 46.5887 165.322 46.31 164.46 46.006L164.232 39.736C165.93 38.2413 167.817 36.9747 169.894 35.936L167.69 34.34C167.918 30.996 169.654 26.6893 172.896 21.42C173.91 19.7733 175.024 18.1267 176.24 16.48L180.192 19.482C175.759 25.714 173.365 30.2993 173.01 33.238C174.353 33.0353 175.43 32.7187 176.24 32.288C177.862 31.4267 179.154 30.1727 180.116 28.526C182.295 24.1687 184.246 20.774 185.968 18.342L189.996 21.496C187.514 25.296 185.639 28.602 184.372 31.414ZM168.07 42.51C170.401 43.042 172.326 43.3333 173.846 43.384C175.493 41.9907 176.785 39.7993 177.722 36.81C173.593 38.482 170.376 40.382 168.07 42.51Z" fill="black"/>
<path d="M20.5227 36.3297C17.7387 35.2956 14.875 35.1365 12.25 35.8524C10.4205 36.3297 8.67048 37.2843 7.07957 38.4774L5.96591 39.432L5.64774 39.7502L6.36364 40.3865C6.44319 40.3865 6.4432 40.4661 6.52274 40.5456C6.68183 40.7047 6.84093 40.7843 7.07957 40.9434L7.55682 41.2615L8.0341 40.8638C8.11364 40.7843 8.27274 40.6252 8.43183 40.5456C9.86364 39.3524 11.4545 38.557 13.125 38.1593C15.2727 37.6024 17.5795 37.682 19.8864 38.557C21.7955 39.2729 25.6932 40.1479 30.3864 38.1593L30.5455 38.0797L30.7841 37.8411C30.7841 37.7615 30.8637 37.7615 30.9432 37.682C31.3409 37.2047 31.7387 36.7274 32.0568 36.1706L33.6477 33.7047L31.1023 35.1365C27.3636 37.2047 23.9432 37.6024 20.5227 36.3297Z" fill="#201B21"/>
<path d="M9.62501 27.7384C11.7727 27.1816 14.0796 27.2611 16.3864 28.1361C18.9318 29.0907 25.4546 30.443 32.7727 23.8407L33.9659 22.6475L34.0455 22.5679L34.3636 22.2498L34.2045 21.852C34.125 21.5339 33.9659 21.1361 33.8068 20.7384L33.4091 19.6248L32.6136 20.4202C32.5341 20.5793 32.375 20.6588 32.2159 20.8179C28.7159 24.3975 23.3068 28.0566 17.1023 25.8293C14.3182 24.7952 11.4546 24.6361 8.82955 25.352C6.2841 26.0679 4.05682 27.4202 1.98864 29.3293V29.2498L0.795455 30.5225C0.795455 30.602 0.715924 30.602 0.636379 30.6816L0.397728 30.9202L0.477278 31.2384C0.556824 31.6361 0.71591 32.0339 0.795455 32.4316L1.27273 33.7043L2.06819 32.6702C2.14773 32.5111 2.30682 32.4316 2.38636 32.2725C4.05682 30.7611 6.36364 28.6134 9.62501 27.7384Z" fill="#201B21"/>
<path d="M1.90911 26.3067C3.73866 24.3976 5.80682 23.2044 8.0341 22.568C10.1818 22.0112 12.4886 22.0908 14.7955 22.9658C21.9546 25.5908 28.1591 21.2953 30.8637 18.9885L31.8977 17.9544L32.2955 17.6362L31.9773 17.159C31.7386 16.9203 31.5796 16.6021 31.3409 16.284L30.8637 15.6476L30.3068 16.2044C30.2273 16.284 30.0682 16.443 29.9886 16.5226C26.6477 19.7044 21.4773 22.9658 15.5909 20.7385C12.8068 19.7044 9.94319 19.5453 7.31819 20.2612C5.64774 20.7385 4.05682 21.534 2.46591 22.568L0.795455 23.9203C0.636364 24.0794 0.556818 24.159 0.397727 24.3181L0.238651 24.4771V24.7158C0.159105 25.2726 0.159096 25.8294 0.0795503 26.3067L0 28.2953L1.35228 26.8635C1.51137 26.7044 1.67047 26.4658 1.90911 26.3067Z" fill="#201B21"/>
<path d="M22.8296 41.7386L22.6705 42.2159L22.8296 41.7386C22.5909 41.659 22.4318 41.5795 22.1932 41.4999C19.4091 40.4659 16.5455 40.3068 13.9205 41.0227C13.3636 41.1818 12.8068 41.3409 12.25 41.5795L10.3409 42.4545L9.86366 42.6931L11.4546 43.25C11.9318 43.409 12.4091 43.5681 12.8864 43.7272L13.125 43.8068L13.3637 43.7272C13.6023 43.6477 13.8409 43.4886 14.0796 43.4886C14.2387 43.4886 14.3977 43.409 14.5568 43.3295C16.4659 42.8522 18.5341 42.8522 20.7614 43.5681C21 43.6477 21.1591 43.7272 21.3977 43.8068L21.7955 43.9659L22.0341 43.8863C22.5909 43.7272 23.2273 43.5681 23.7046 43.3295L25.9318 42.534L23.625 41.9772C23.3864 41.8977 23.0682 41.8181 22.8296 41.7386Z" fill="#201B21"/>
<path d="M35 25.2729L33.8068 26.4661C33.6477 26.6252 33.4887 26.7843 33.3296 26.9433C30.0682 30.0456 24.8182 33.3865 18.9318 31.1592C16.1477 30.1252 13.2841 29.9661 10.6591 30.682C8.1932 31.3979 5.96591 32.6706 3.97727 34.5797L2.94319 35.6933L2.62502 36.0911L2.94319 36.5684C3.18183 36.8865 3.34093 37.1252 3.50002 37.4434L3.97727 38.1593L4.5341 37.4434C4.61365 37.3638 4.77273 37.2047 4.85228 37.1252C6.76137 35.057 8.82955 33.7842 11.2159 33.1479C13.3636 32.5911 15.6705 32.6706 17.9773 33.5456C19.9659 34.2615 22.0341 34.5002 24.1023 34.2615C27.7614 33.8638 31.4205 31.7956 34.125 29.4888C34.2841 29.3297 34.4432 29.2502 34.6023 29.0911L34.8409 28.8524V28.6138C34.8409 28.1365 34.9205 27.5797 34.9205 27.1024L35 25.2729Z" fill="#201B21"/>
<path d="M4.77272 17.9545L4.5341 17.4772L4.77272 17.9545C5.25 17.7159 5.80683 17.5568 6.28411 17.3977C8.43183 16.8408 10.7387 16.9204 13.0455 17.7954C14.5568 18.3522 16.0682 18.5909 17.7386 18.5909C21.0796 18.5909 24.4205 17.3977 27.5227 15.0909L28.7159 14.1363L29.1136 13.8181L28.3977 13.2613C28.1591 13.0227 27.8409 12.784 27.5227 12.6249L27.0454 12.3068L26.6477 12.6249C26.4886 12.7045 26.4091 12.8636 26.25 12.9431C22.0341 16.1249 17.8182 16.9999 13.8409 15.4886C10.9773 14.4545 8.11364 14.2159 5.25 15.0909C5.01136 15.1704 4.77273 15.2499 4.45455 15.3295L4.29547 15.409L4.05682 15.6477C4.05682 15.7272 3.97729 15.7272 3.89774 15.8068C3.57956 16.284 3.18182 16.6818 2.86364 17.159L1.35228 19.4659L3.81819 18.1931C4.21592 18.1931 4.53409 18.034 4.77272 17.9545Z" fill="#201B21"/>
<path d="M11.2955 12.5454L11.5341 12.625C12.5682 13.0227 14.1591 13.4204 16.1477 13.4204C18.2159 13.4204 20.2046 12.9432 22.1932 12.1477L24.6591 10.9545L22.9887 10.3977C22.5114 10.2386 22.0341 10.0795 21.4773 10H21.2386L21 10.0795C20.7614 10.1591 20.5227 10.3182 20.2841 10.3977C17.8977 11.2727 15.5114 11.4318 13.2045 10.7955C12.9659 10.7159 12.7273 10.6363 12.4886 10.5568L12.25 10.4773L12.0114 10.5568C11.5341 10.7159 11.0568 10.875 10.5796 11.1136L8.75 11.9091L10.6591 12.4659C10.8182 12.3863 11.0568 12.4659 11.2955 12.5454Z" fill="#201B21"/>
</svg>
